<svg width="35px" height="35px" viewBox="0 0 35 35" version="1.1" xmlns="http://www.w3.org/2000/svg" xlink="http://www.w3.org/1999/xlink">
    <!-- Generator: Sketch 41.2 (35397) - http://www.bohemiancoding.com/sketch -->
    <title>design-64px-outline_wand-99</title>
    <desc>Created with Sketch.</desc>
    <defs></defs>
    <g id="Portfolio" stroke="none" stroke-width="1" fill="none" fill-rule="evenodd">
        <g transform="translate(-558.000000, -961.000000)" id="Group-17">
            <g transform="translate(560.000000, 957.000000)">
                <g id="Group-14">
                    <g id="design-64px-outline_wand-99" transform="translate(0.000000, 5.000000)">
                        <g id="Group">
                            <path d="M32,6.50847458 C30.4379661,4.94644068 27.0535593,4.94644068 25.4915254,6.50847458 C27.0535593,4.94644068 27.0535593,1.5620339 25.4915254,0 C27.0535593,1.5620339 30.4379661,1.5620339 32,0 C30.4379661,1.5620339 30.4379661,4.94644068 32,6.50847458 Z" id="Shape" stroke="#00CEDB" stroke-width="2"></path>
                            <path d="M30.9152542,22.779661 C29.8738983,21.7383051 27.6176271,21.7383051 26.5762712,22.779661 C27.6176271,21.7383051 27.6176271,19.4820339 26.5762712,18.440678 C27.6176271,19.4820339 29.8738983,19.4820339 30.9152542,18.440678 C29.8738983,19.4820339 29.8738983,21.7383051 30.9152542,22.779661 Z" id="Shape" stroke="#00CEDB" stroke-width="2"></path>
                            <path d="M13.559322,5.42372881 C12.5179661,4.38237288 10.2616949,4.38237288 9.22033898,5.42372881 C10.2616949,4.38237288 10.2616949,2.12610169 9.22033898,1.08474576 C10.2616949,2.12610169 12.5179661,2.12610169 13.559322,1.08474576 C12.5179661,2.12610169 12.5179661,4.38237288 13.559322,5.42372881 Z" id="Shape" stroke="#00CEDB" stroke-width="2"></path>
                            <path d="M15.1864407,11.9322034 L20.0677966,16.8135593" id="Shape" stroke="#505050" stroke-width="2"></path>
                            <rect id="Rectangle-path" stroke="#505050" stroke-width="1.99998082" transform="translate(11.931795, 20.067934) rotate(-45.000000) translate(-11.931795, -20.067934) " x="-1.49099184" y="16.6163062" width="26.8455731" height="6.90325583"></rect>
                        </g>
                    </g>
                </g>
            </g>
        </g>
    </g>
</svg>